<?xml version="1.0" standalone="no"?>
<!DOCTYPE svg PUBLIC "-//W3C//DTD SVG 20010904//EN"
 "http://www.w3.org/TR/2001/REC-SVG-20010904/DTD/svg10.dtd">
<svg version="1.0" xmlns="http://www.w3.org/2000/svg"
 width="512.000000pt" height="512.000000pt" viewBox="0 0 512.000000 512.000000"
 preserveAspectRatio="xMidYMid meet">
<metadata>
Created by potrace 1.11, written by Peter Selinger 2001-2013
</metadata>
<g transform="translate(0.000000,512.000000) scale(0.100000,-0.100000)"
fill="#000000" stroke="none">
<path d="M543 4521 c-73 -27 -137 -75 -178 -136 -69 -100 -65 -1 -65 -1556 0
-1391 0 -1409 20 -1463 38 -102 113 -178 213 -218 41 -17 36 -17 -229 -17
-254 -1 -272 -2 -288 -20 -16 -17 -17 -38 -14 -178 3 -151 4 -160 30 -205 16
-25 47 -62 69 -82 84 -72 -122 -66 2474 -64 l2340 3 51 27 c29 15 68 46 87 69
56 64 67 111 67 274 0 125 -2 144 -18 158 -16 15 -51 17 -288 17 l-269 0 62
29 c78 37 147 105 181 179 l27 57 0 1440 0 1440 -22 48 c-34 71 -113 150 -186
183 l-62 29 -1975 2 c-1912 2 -1977 2 -2027 -16z m3935 -323 c9 -9 12 -326 12
-1364 l0 -1353 -22 -15 c-20 -14 -218 -16 -1911 -16 l-1888 0 -24 25 -25 24 0
1166 0 1165 210 0 210 0 0 190 0 190 1713 0 c1319 0 1716 -3 1725 -12z"/>
<path d="M1066 3359 l-26 -20 0 -680 0 -679 145 0 144 0 3 113 3 112 139 3
c93 2 143 -1 152 -9 10 -8 14 -39 14 -115 l0 -105 143 3 142 3 3 673 2 673
-24 24 -25 25 -394 0 c-384 0 -395 -1 -421 -21z m639 -244 c14 -13 25 -36 25
-50 0 -14 -11 -37 -25 -50 -24 -25 -25 -25 -220 -25 -195 0 -196 0 -220 25
-14 13 -25 36 -25 50 0 14 11 37 25 50 24 25 25 25 220 25 195 0 196 0 220
-25z m6 -284 c25 -31 24 -69 -3 -98 -21 -23 -25 -23 -222 -23 -191 0 -201 1
-223 22 -37 35 -26 99 20 118 12 5 109 8 215 7 190 -2 194 -2 213 -26z m-4
-283 c41 -38 26 -98 -28 -117 -18 -6 -102 -11 -194 -11 -92 0 -176 5 -194 11
-54 19 -68 75 -29 116 21 23 25 23 222 23 191 0 201 -1 223 -22z"/>
<path d="M3717 3273 c-4 -3 -7 -294 -7 -645 l0 -638 85 0 85 0 0 645 0 645
-78 0 c-43 0 -82 -3 -85 -7z"/>
<path d="M3096 2984 c-3 -8 -6 -236 -6 -505 l0 -489 155 0 155 0 -2 503 -3
502 -146 3 c-127 2 -147 0 -153 -14z"/>
<path d="M2487 2714 c-4 -4 -7 -169 -7 -366 l0 -358 155 0 155 0 -2 363 -3
362 -146 3 c-80 1 -148 -1 -152 -4z"/>
</g>
</svg>
